<?xml version="1.0" encoding="utf-8"?>
<!-- Generator: Adobe Illustrator 16.0.0, SVG Export Plug-In . SVG Version: 6.00 Build 0)  -->
<!DOCTYPE svg PUBLIC "-//W3C//DTD SVG 1.1//EN" "http://www.w3.org/Graphics/SVG/1.1/DTD/svg11.dtd">
<svg version="1.1" id="Layer_1" xmlns="http://www.w3.org/2000/svg" xmlns:xlink="http://www.w3.org/1999/xlink" x="0px" y="0px"
	 width="327px" height="508.501px" viewBox="92 2.299 327 508.501" enable-background="new 92 2.299 327 508.501"
	 xml:space="preserve">
<g transform="translate(0.000000,512.000000) scale(0.100000,-0.100000)">
	<path fill="#112942" d="M1272.998,4751C1078.998,4560,920,4401,920,4397.998c0-5,1357.002-1357.998,1677.998-1672.998
		c89.004-87.002,162.002-163.998,162.002-170c0-5.996-75-85-167.002-175C2152.998,1947.998,920,715,922.002,709.004
		C930,690.996,1631,9.004,1638.998,12.002C1647.002,14.004,4190,2550,4190,2555c0,7.998-2542.998,2541-2552.998,2542.002
		C1631,5097.998,1466,4942.998,1272.998,4751z"/>
</g>
</svg>
